<?xml version='1.0' encoding='utf-8'?>
<svg xmlns="http://www.w3.org/2000/svg" version="1.1" viewBox="0 0 600 976"> <g fill="#04474a" stroke-linejoin="miter"> <path d="m254.58 49.423q-147.23 2.7903-250.55 104.71-101.26 104.36-103.07 250.78 2.309 146.34 104.36 250.54 103.64 101.25 251.05 103.42 147.24-2.6127 250.69-104.43 101.39-104.26 103.35-250.68-2.1552-146.34-104.08-250.64-103.5-101.35-250.91-103.7"/> </g> <g fill="#fff" fill-opacity=".18039" stroke-linejoin="miter"> <path d="m257.04 80.552q-133.39 1.5584-231.2 95.567-93.944 96.439-96.219 231.49 1.9644 134.87 95.693 231.6 94.878 93.108 231.01 96.092 133.4-1.2969 231.41-95.149 94.137-96.294 96.638-231.35-1.7388-134.87-95.275-231.74-94.675-93.259-230.8-96.509"/> </g> <g fill="#241e1e" fill-opacity=".28235" stroke-linejoin="miter"> <path d="m262.75 178.57q-96.572 1.4707-170.47 57.764h7.2e-4l24.771 44.123q62.97-50.754 145.58-51.873h0.12781q55.268 0.94208 101.26 23.333l27.607-42.058h0.00366q-58.316-30.192-128.75-31.289zm137.69 36.06-27.519 41.873h0.00354q28.431 15.443 53.173 39.416 66.758 68.518 68.435 163.52-0.02178 2.119-0.0759 4.2251l50.024-0.43275h0.00514q0.0381-1.5564 0.0619-3.1188-1.9347-116.11-82.593-199.06-28.786-27.94-61.512-46.42zm-316.09 27.958q-10.575 8.6239-20.67 18.409-80.681 82.875-82.645 199.06 0.060395 4.0428 0.21625 8.0457l49.994-0.4325h9.1e-5q-0.14204-3.4526-0.19629-6.9408 1.1732-95.077 67.489-163.86 5.2966-5.139 10.746-9.8913h8.9e-4l-24.934-44.386zm165.84 42.183-27.021 51.825h-0.00358q-22.042 8.5738-40.308 26.195-34.286 34.904-35.137 83.758 0.47949 48.869 34.369 83.996 35.237 34.37 83.697 35.073 49.43-0.7063 84.009-34.383 34.25-34.931 35.059-83.785-0.52094-48.869-34.446-83.97-25.053-24.391-56.761-31.789h-0.0043l-43.311-46.769-0.14191-0.1532z"/> </g> <g stroke-linejoin="miter"> <g fill="#321d1d"> <path d="m248.56 255.94-57.234 109.77 147.85-11.928-90.472-97.694"/> </g> <g fill="#fa0"> <path d="m261.12 149.74q-96.572 1.4707-170.47 57.763h7.2e-4l24.771 44.123q62.97-50.754 145.58-51.872l0.1278-4e-5q55.268 0.9421 101.26 23.333l27.607-42.058h0.00365q-58.316-30.192-128.75-31.289l-0.13026-3e-5z"/> </g> <g fill="#fa5422"> <path d="m398.81 185.8-27.519 41.873h0.00355q28.431 15.443 53.173 39.416 66.758 68.518 68.436 163.52-0.02179 2.119-0.07592 4.2251l50.024-0.43277h0.0052q0.038-1.5564 0.0618-3.1187-1.9348-116.11-82.593-199.06-28.786-27.94-61.512-46.42z"/> </g> <g fill="#78ff00"> <path d="m82.717 213.76q-10.575 8.6239-20.67 18.409-80.681 82.875-82.646 199.06 0.06039 4.0428 0.21626 8.0456l49.994-0.43254h1.03e-4q-0.14204-3.4526-0.1963-6.9408 1.1732-95.077 67.49-163.86 5.2966-5.139 10.746-9.8913h8.86e-4l-24.934-44.386z"/> </g> <g> <path d="m264.75 299.66q-48.646 0.65832-83.524 34.307-34.286 34.904-35.137 83.758 0.47949 48.869 34.369 83.996 35.237 34.37 83.697 35.074 49.43-0.7063 84.009-34.383 34.25-34.931 35.059-83.784-0.52093-48.869-34.446-83.97-35.272-34.341-83.737-34.996"/> </g> <g fill="#241e1e"> <path d="m264.72 329.47q-36.425 0.4951-62.532 25.691-25.659 26.135-26.288 62.702 0.36703 36.578 25.743 62.869 26.391 25.726 62.677 26.235 37.012-0.55127 62.879-25.781 25.618-26.165 26.198-62.732-0.41503-36.579-25.833-62.839-26.432-25.692-62.723-26.145"/> </g> </g> <g fill="#12ffbb" fill-opacity=".23137" stroke-linejoin="miter"> <path d="m141.22 580.03q34.18 5.4028 28.404 23.86l-0.35301 0.76106q-2.6628 6.9396-10.606 6.9957-9.4091 0.06634-26.227-9.5256l8.7831-22.091zm278.26-38.881-29.375 50.167-10.39-33.854-32.183 8.4217 27.813 106.13 35.463-10.078-10.211-35.678 53.423 24.219 17.088-30.558-1.4625-0.68306-42.666-20.177 22.877-42.704-30.376-15.202zm-297.74-7.2392-40.975 101.45 32.283 13.134 7.3901-13.274q26.73 45.396 77.811 45.036 5.3874-0.03797 11.046-0.5849l-0.26742-0.59357q-7.4048-15.251-12.642-33.846-1.9849 0.33735-4.1649 0.35273-6.5715 0.04633-14.916-2.8331 41.388-19.372 22.003-67.842-0.03924-14.687-77.568-41zm198.98 38.213q-23.124 0.16305-39.079 22.389-23.337 44.73 16.986 69.147-2.9831 5.5359-19.196 20.331-1.7644 1.5718 1.7021 2.6584 11.021 4.187 20.452 4.1206 18.341-0.12935 30.672-16.345 6.989-14.651 1.5676-25.168-2.6423-9.4022-22.325-20.268-4.2913-4.8439-3.5334-11.09 4.4367-11.88 13.865-11.946 3.5745-0.0252 7.8666 1.6477l17.714-29.207-1.5287-0.81553q-13.495-5.536-25.164-5.4538zm-81.395 8.7168-20.389 105.02q10.089 5.6778 47.245 5.602l-0.01102-0.57195-3.2889-109.29-23.556-0.75636z"/> </g> <g fill-opacity=".054902" stroke-linejoin="miter"> <path d="m255.02 49.422-0.43869 6.57e-4q-147.23 2.7903-250.55 104.71-101.26 104.36-103.07 250.78 2.309 146.34 104.36 250.54 103.58 101.2 250.88 103.42h7.9e-4l-1.1856-709.45z"/> </g> <g fill="#fff" fill-opacity=".031373" stroke-linejoin="miter"> <path d="m265.64 340.87q-31.287 0.49811-53.538 22.138-21.766 22.604-22.174 53.305 0.37059 31.161 22.069 53.624 22.221 21.693 53.495 22.243 31.288-0.48425 53.549-22.116 21.776-22.596 22.196-53.297-0.35906-31.161-22.047-53.631-22.21-21.7-53.484-22.265"/> </g> </svg>